<svg width="2000" height="800" viewBox="0 0 2000 800" fill="none" xmlns="http://www.w3.org/2000/svg">
<rect width="2000" height="800" fill="#0D1117"/>
<path d="M956.459 361.382H925.775C923.041 361.382 921.576 364.593 923.368 366.654L950.87 398.283C951.999 399.582 951.892 401.542 950.626 402.709L888.031 460.477C885.9 462.444 887.293 466 890.194 466H922.279C923.098 466 923.886 465.685 924.478 465.121L990.047 402.718C991.283 401.542 991.371 399.601 990.247 398.317L958.859 362.47C958.254 361.779 957.379 361.382 956.459 361.382Z" fill="white"/>
<path d="M1043.54 439.618H1074.23C1076.96 439.618 1078.42 436.407 1076.63 434.346L1049.13 402.717C1048 401.418 1048.11 399.458 1049.37 398.291L1111.97 340.523C1114.1 338.556 1112.71 335 1109.81 335H1077.72C1076.9 335 1076.11 335.315 1075.52 335.879L1009.95 398.282C1008.72 399.458 1008.63 401.399 1009.75 402.683L1041.14 438.53C1041.75 439.221 1042.62 439.618 1043.54 439.618Z" fill="white"/>
<path d="M968.756 481.252C969.484 480.56 970.635 480.59 971.326 481.319V481.319C978.238 488.603 977.937 500.111 970.653 507.023L840.086 630.927C839.357 631.618 838.207 631.588 837.515 630.86V630.86C830.603 623.576 830.905 612.068 838.188 605.155L968.756 481.252Z" fill="black" fill-opacity="0.4"/>
<path d="M899.756 501.252C900.484 500.56 901.635 500.59 902.326 501.319V501.319C909.238 508.603 908.937 520.111 901.653 527.023L771.086 650.927C770.357 651.618 769.207 651.588 768.515 650.86V650.86C761.603 643.576 761.905 632.068 769.188 625.155L899.756 501.252Z" fill="black" fill-opacity="0.4"/>
<path d="M1147.89 180.516C1155.17 173.603 1166.68 173.905 1173.59 181.189V181.189C1174.28 181.917 1174.25 183.068 1173.52 183.759L1042.96 307.663C1035.67 314.575 1024.16 314.274 1017.25 306.99V306.99C1016.56 306.261 1016.59 305.111 1017.32 304.419L1147.89 180.516Z" fill="black" fill-opacity="0.4"/>
<path d="M1216.89 160.516C1224.17 153.603 1235.68 153.905 1242.59 161.189V161.189C1243.28 161.917 1243.25 163.068 1242.52 163.759L1111.96 287.663C1104.67 294.575 1093.16 294.274 1086.25 286.99V286.99C1085.56 286.261 1085.59 285.111 1086.32 284.419L1216.89 160.516Z" fill="black" fill-opacity="0.4"/>
</svg>
