<svg width="1920" height="391" viewBox="0 0 1920 391" fill="none" xmlns="http://www.w3.org/2000/svg">
<g clip-path="url(#clip0_716_4)">
<path d="M407.626 129H536.347C541.111 129 544.973 132.862 544.973 137.626V146.774C544.973 151.538 541.111 155.4 536.347 155.4H428.858C427.026 155.4 425.541 156.885 425.541 158.718V178.482C425.541 180.315 427.026 181.8 428.858 181.8H536.347C541.111 181.8 544.973 185.662 544.973 190.426V252.374C544.973 257.138 541.111 261 536.347 261H407.626C402.862 261 399 257.138 399 252.374V243.226C399 238.462 402.862 234.6 407.626 234.6H515.115C516.947 234.6 518.432 233.115 518.432 231.282V211.518C518.432 209.685 516.947 208.2 515.115 208.2H407.626C402.862 208.2 399 204.338 399 199.574V137.626C399 132.862 402.862 129 407.626 129Z" fill="#FF556E"/>
<path d="M604.689 252.374V137.626C604.689 132.862 608.551 129 613.315 129H622.604C627.368 129 631.229 132.862 631.229 137.626V252.374C631.229 257.138 627.368 261 622.604 261H613.315C608.551 261 604.689 257.138 604.689 252.374Z" fill="#FF556E"/>
<path d="M663.105 190.842L710.252 132.22C711.889 130.184 714.361 129 716.974 129H737.707C741.05 129 742.904 132.871 740.809 135.476L696.281 190.842C694.328 193.27 694.328 196.73 696.281 199.158L740.809 254.524C742.904 257.129 741.05 261 737.707 261H716.974C714.361 261 711.889 259.816 710.252 257.78L663.105 199.158C661.152 196.73 661.152 193.27 663.105 190.842Z" fill="#FF556E"/>
<path d="M832.36 129H814.678C811.23 129 809.413 133.084 811.72 135.646L863.485 193.107C864.582 194.326 865.19 195.908 865.19 197.548V252.374C865.19 257.138 869.052 261 873.816 261H882.989C887.753 261 891.615 257.138 891.615 252.374V197.75C891.615 195.989 892.315 194.301 893.561 193.056L950.874 135.797C953.384 133.29 951.608 129 948.06 129H930.414C926.721 129 923.179 130.466 920.566 133.076L880.935 172.67C879.568 174.035 877.329 173.949 876.072 172.484L842.935 133.861C840.288 130.775 836.425 129 832.36 129Z" fill="#FF556E"/>
<path d="M1017.39 248.393V138.289C1017.39 133.525 1021.26 129.664 1026.02 129.664H1035.31C1040.07 129.664 1043.93 133.525 1043.93 138.289V228.628C1043.93 232.293 1046.9 235.264 1050.57 235.264H1095.02C1099.79 235.264 1103.65 239.125 1103.65 243.889V253.038C1103.65 257.802 1099.79 261.664 1095.02 261.664H1030.66C1023.33 261.664 1017.39 255.722 1017.39 248.393Z" fill="#FF556E"/>
<path d="M1293.41 261.664H1171.99C1167.23 261.664 1163.37 257.802 1163.37 253.038V243.889C1163.37 239.125 1167.23 235.264 1171.99 235.264H1209.56C1213.22 235.264 1216.19 232.293 1216.19 228.628V162.699C1216.19 159.034 1213.22 156.064 1209.56 156.064H1171.99C1167.23 156.064 1163.37 152.202 1163.37 147.438V138.289C1163.37 133.525 1167.23 129.664 1171.99 129.664H1293.41C1298.18 129.664 1302.04 133.525 1302.04 138.289V147.438C1302.04 152.202 1298.18 156.064 1293.41 156.064H1255.85C1252.18 156.064 1249.21 159.034 1249.21 162.699V228.628C1249.21 232.293 1252.18 235.264 1255.85 235.264H1293.41C1298.18 235.264 1302.04 239.125 1302.04 243.889V253.038C1302.04 257.802 1298.18 261.664 1293.41 261.664Z" fill="#FF556E"/>
<path d="M1402.95 131.192C1402.07 130.219 1400.82 129.664 1399.51 129.664H1372.07C1368.07 129.664 1365.94 134.388 1368.59 137.386L1477.15 260.097C1478.03 261.093 1479.3 261.664 1480.63 261.664H1510.53C1514.56 261.664 1516.68 256.889 1513.98 253.903L1402.95 131.192Z" fill="#FF556E"/>
<path d="M1479.81 131.192C1480.69 130.219 1481.94 129.664 1483.25 129.664H1510.69C1514.69 129.664 1516.82 134.388 1514.17 137.386L1405.61 260.097C1404.73 261.093 1403.46 261.664 1402.13 261.664H1372.22C1368.2 261.664 1366.08 256.889 1368.78 253.903L1479.81 131.192Z" fill="#FF556E"/>
<path d="M1514.36 136.924L1466.84 191.475C1464.42 194.246 1464.44 198.381 1466.89 201.125L1514.36 254.404L1463.14 201.336C1460.43 198.531 1460.4 194.093 1463.08 191.257L1514.36 136.924Z" fill="#FF556E"/>
<path d="M1368.39 137.583L1415.92 192.135C1418.34 194.906 1418.31 199.041 1415.87 201.785L1368.39 255.063L1419.62 201.996C1422.33 199.191 1422.35 194.752 1419.68 191.917L1368.39 137.583Z" fill="#FF556E"/>
<path d="M1391.61 129.664L1436.6 168.441C1439.34 170.808 1443.41 170.801 1446.15 168.426L1490.81 129.664L1446.4 172.058C1443.59 174.744 1439.16 174.752 1436.34 172.075L1391.61 129.664Z" fill="#FF556E"/>
<path d="M1488.49 261.663L1446.13 225.762C1443.39 223.441 1439.38 223.456 1436.65 225.795L1394.93 261.663L1436.16 218.896C1439.02 215.933 1443.76 215.916 1446.63 218.859L1488.49 261.663Z" fill="#FF556E"/>
</g>
<defs>
<clipPath id="clip0_716_4">
<rect width="1920" height="391" rx="30" fill="white"/>
</clipPath>
</defs>
</svg>
