<svg width="1920" height="512" viewBox="0 0 1920 512" fill="none" xmlns="http://www.w3.org/2000/svg">
<g clip-path="url(#clip0_716_4)">
<path d="M407.626 189H536.347C541.111 189 544.973 192.862 544.973 197.626V206.915C544.973 211.679 541.111 215.54 536.347 215.54H428.858C427.026 215.54 425.541 217.026 425.541 218.858V238.763C425.541 240.596 427.026 242.081 428.858 242.081H536.347C541.111 242.081 544.973 245.943 544.973 250.707V313.077C544.973 317.841 541.111 321.702 536.347 321.702H407.626C402.862 321.702 399 317.841 399 313.077V303.788C399 299.024 402.862 295.162 407.626 295.162H515.115C516.947 295.162 518.432 293.677 518.432 291.844V271.939C518.432 270.107 516.947 268.621 515.115 268.621H407.626C402.862 268.621 399 264.76 399 259.996V197.626C399 192.862 402.862 189 407.626 189Z" fill="#FF556E"/>
<path d="M604.689 313.077V197.626C604.689 192.862 608.551 189 613.315 189H622.604C627.368 189 631.229 192.862 631.229 197.626V313.077C631.229 317.841 627.368 321.702 622.604 321.702H613.315C608.551 321.702 604.689 317.841 604.689 313.077Z" fill="#FF556E"/>
<path d="M663.077 251.206L710.252 192.237C711.889 190.191 714.367 189 716.987 189H737.734C741.072 189 742.928 192.861 740.843 195.468L696.252 251.206C694.314 253.63 694.314 257.073 696.252 259.496L740.843 315.234C742.928 317.841 741.072 321.702 737.734 321.702H716.987C714.367 321.702 711.889 320.511 710.252 318.465L663.077 259.496C661.138 257.073 661.138 253.63 663.077 251.206Z" fill="#FF556E"/>
<path d="M832.338 189H814.646C811.204 189 809.384 193.074 811.681 195.638L863.496 253.461C864.587 254.678 865.19 256.255 865.19 257.889V313.077C865.19 317.841 869.052 321.702 873.816 321.702H882.989C887.753 321.702 891.615 317.841 891.615 313.077V258.091C891.615 256.336 892.31 254.653 893.548 253.41L950.917 195.79C953.417 193.28 951.639 189 948.096 189H930.436C926.73 189 923.176 190.476 920.562 193.103L880.941 232.896C879.574 234.27 877.325 234.183 876.067 232.709L842.937 193.889C840.289 190.787 836.416 189 832.338 189Z" fill="#FF556E"/>
<path d="M1017.39 309.096V198.289C1017.39 193.525 1021.26 189.664 1026.02 189.664H1035.31C1040.07 189.664 1043.93 193.525 1043.93 198.289V289.19C1043.93 292.855 1046.9 295.826 1050.57 295.826H1095.02C1099.79 295.826 1103.65 299.687 1103.65 304.451V313.74C1103.65 318.504 1099.79 322.366 1095.02 322.366H1030.66C1023.33 322.366 1017.39 316.425 1017.39 309.096Z" fill="#FF556E"/>
<path d="M1293.41 322.366H1171.99C1167.23 322.366 1163.37 318.504 1163.37 313.74V304.451C1163.37 299.687 1167.23 295.826 1171.99 295.826H1209.56C1213.22 295.826 1216.19 292.855 1216.19 289.19V222.839C1216.19 219.175 1213.22 216.204 1209.56 216.204H1171.99C1167.23 216.204 1163.37 212.342 1163.37 207.578V198.289C1163.37 193.525 1167.23 189.664 1171.99 189.664H1293.41C1298.18 189.664 1302.04 193.525 1302.04 198.289V207.578C1302.04 212.342 1298.18 216.204 1293.41 216.204H1255.85C1252.18 216.204 1249.21 219.175 1249.21 222.839V289.19C1249.21 292.855 1252.18 295.826 1255.85 295.826H1293.41C1298.18 295.826 1302.04 299.687 1302.04 304.451V313.74C1302.04 318.504 1298.18 322.366 1293.41 322.366Z" fill="#FF556E"/>
<path d="M1402.95 191.201C1402.07 190.222 1400.82 189.664 1399.5 189.664H1372.03C1368.03 189.664 1365.9 194.376 1368.54 197.377L1477.15 320.79C1478.03 321.792 1479.3 322.366 1480.64 322.366H1510.57C1514.59 322.366 1516.71 317.603 1514.02 314.614L1402.95 191.201Z" fill="#FF556E"/>
<path d="M1479.81 191.201C1480.69 190.222 1481.94 189.664 1483.26 189.664H1510.73C1514.72 189.664 1516.85 194.376 1514.21 197.377L1405.61 320.79C1404.73 321.792 1403.46 322.366 1402.12 322.366H1372.19C1368.16 322.366 1366.04 317.603 1368.73 314.614L1479.81 191.201Z" fill="#FF556E"/>
<path d="M1514.36 196.962L1466.8 251.844C1464.4 254.611 1464.43 258.726 1466.85 261.466L1514.36 315.068L1463.1 261.677C1460.41 258.876 1460.38 254.458 1463.04 251.626L1514.36 196.962Z" fill="#FF556E"/>
<path d="M1368.39 197.625L1415.96 252.507C1418.35 255.274 1418.33 259.389 1415.9 262.129L1368.39 315.731L1419.66 262.34C1422.35 259.539 1422.37 255.121 1419.72 252.289L1368.39 197.625Z" fill="#FF556E"/>
<path d="M1391.61 189.663L1436.58 228.635C1439.33 231.019 1443.42 231.012 1446.16 228.619L1490.81 189.663L1446.42 232.27C1443.6 234.974 1439.15 234.982 1436.33 232.287L1391.61 189.663Z" fill="#FF556E"/>
<path d="M1488.49 322.366L1446.15 286.286C1443.4 283.949 1439.37 283.963 1436.64 286.319L1394.93 322.366L1436.15 279.385C1439.01 276.403 1443.77 276.386 1446.65 279.347L1488.49 322.366Z" fill="#FF556E"/>
</g>
<defs>
<clipPath id="clip0_716_4">
<rect width="1920" height="512" rx="30" fill="white"/>
</clipPath>
</defs>
</svg>
